<?xml version="1.0" encoding="UTF-8"?>
<svg width="900" height="620" viewBox="0 0 900 620" xmlns="http://www.w3.org/2000/svg" font-family="Arial, sans-serif">

  <!-- Background -->
  <rect width="900" height="620" fill="#F3E8FF" rx="12"/>

  <!-- Title -->
  <text x="450" y="38" text-anchor="middle" font-size="22" font-weight="bold" fill="#1a1a2e">🍔 Food Rush — Diagrama de Arquitetura</text>
  <text x="450" y="58" text-anchor="middle" font-size="12" fill="#555">Domain-Driven Design · Frontend + Backend · MySQL</text>
  <line x1="60" y1="68" x2="840" y2="68" stroke="#D8B4FE" stroke-width="1.5"/>

  <!-- ===== FRONTEND BLOCK ===== -->
  <rect x="30" y="85" width="250" height="480" rx="12" fill="#ffffff" stroke="#7E22CE" stroke-width="2"/>
  <rect x="30" y="85" width="250" height="36" rx="12" fill="#7E22CE"/>
  <text x="155" y="109" text-anchor="middle" font-size="13" font-weight="bold" fill="white">⚛️ FRONTEND (React)</text>

  <!-- Shared -->
  <rect x="45" y="132" width="220" height="58" rx="8" fill="#F3E8FF" stroke="#D8B4FE" stroke-width="1.5"/>
  <text x="155" y="150" text-anchor="middle" font-size="10" font-weight="bold" fill="#6A0DAD">Shared</text>
  <text x="155" y="165" text-anchor="middle" font-size="9" fill="#555">api.js (Axios baseURL)</text>
  <text x="155" y="178" text-anchor="middle" font-size="9" fill="#555">Header.jsx</text>

  <!-- Restaurantes Context -->
  <rect x="45" y="202" width="220" height="120" rx="8" fill="#EDE9FE" stroke="#A78BFA" stroke-width="1.5"/>
  <text x="155" y="220" text-anchor="middle" font-size="10" font-weight="bold" fill="#6A0DAD">Contexto: Restaurantes</text>
  <line x1="55" y1="226" x2="255" y2="226" stroke="#A78BFA" stroke-width="1"/>
  <text x="155" y="241" text-anchor="middle" font-size="9" fill="#444">📄 Home.jsx</text>
  <text x="155" y="256" text-anchor="middle" font-size="9" fill="#444">📄 RestaurantePage.jsx</text>
  <text x="155" y="271" text-anchor="middle" font-size="9" fill="#444">📄 CadastroRestaurantePage.jsx</text>
  <text x="155" y="286" text-anchor="middle" font-size="9" fill="#444">📄 CadastroItemCardapioPage.jsx</text>
  <text x="155" y="305" text-anchor="middle" font-size="9" fill="#7E22CE" font-weight="bold">🔧 RestauranteService.js</text>

  <!-- Pedidos Context -->
  <rect x="45" y="334" width="220" height="135" rx="8" fill="#EDE9FE" stroke="#A78BFA" stroke-width="1.5"/>
  <text x="155" y="352" text-anchor="middle" font-size="10" font-weight="bold" fill="#6A0DAD">Contexto: Pedidos</text>
  <line x1="55" y1="358" x2="255" y2="358" stroke="#A78BFA" stroke-width="1"/>
  <text x="155" y="373" text-anchor="middle" font-size="9" fill="#444">📄 CarrinhoPage.jsx</text>
  <text x="155" y="388" text-anchor="middle" font-size="9" fill="#444">📄 AcompanharPedidoPage.jsx</text>
  <text x="155" y="403" text-anchor="middle" font-size="9" fill="#444">📄 LoginPage.jsx</text>
  <text x="155" y="418" text-anchor="middle" font-size="9" fill="#7E22CE" font-weight="bold">🔧 PedidoService.js</text>
  <text x="155" y="436" text-anchor="middle" font-size="9" fill="#7E22CE" font-weight="bold">🗂 CarrinhoContext.jsx</text>
  <text x="155" y="455" text-anchor="middle" font-size="9" fill="#555">(Estado global do carrinho)</text>

  <!-- App.jsx -->
  <rect x="45" y="482" width="220" height="38" rx="8" fill="#F3E8FF" stroke="#D8B4FE" stroke-width="1.5"/>
  <text x="155" y="497" text-anchor="middle" font-size="9" font-weight="bold" fill="#6A0DAD">App.jsx — Rotas</text>
  <text x="155" y="511" text-anchor="middle" font-size="9" fill="#555">/ · /restaurante/:id · /carrinho · /pedido/:id</text>

  <!-- ===== CORS ARROW ===== -->
  <line x1="280" y1="325" x2="340" y2="325" stroke="#FF6B35" stroke-width="2" stroke-dasharray="6,3"/>
  <polygon points="340,319 352,325 340,331" fill="#FF6B35"/>
  <rect x="281" y="295" width="62" height="22" rx="5" fill="#FF6B35"/>
  <text x="312" y="310" text-anchor="middle" font-size="9" font-weight="bold" fill="white">CORS</text>
  <text x="312" y="345" text-anchor="middle" font-size="8" fill="#FF6B35">HTTP / REST</text>
  <text x="312" y="357" text-anchor="middle" font-size="8" fill="#FF6B35">Axios</text>

  <!-- ===== BACKEND BLOCK ===== -->
  <rect x="355" y="85" width="360" height="480" rx="12" fill="#ffffff" stroke="#0f3460" stroke-width="2"/>
  <rect x="355" y="85" width="360" height="36" rx="12" fill="#0f3460"/>
  <text x="535" y="109" text-anchor="middle" font-size="13" font-weight="bold" fill="white">⚙️ BACKEND (ASP.NET Core)</text>

  <!-- Controllers -->
  <rect x="370" y="132" width="330" height="58" rx="8" fill="#E0E7FF" stroke="#6366F1" stroke-width="1.5"/>
  <text x="535" y="150" text-anchor="middle" font-size="10" font-weight="bold" fill="#0f3460">Controllers</text>
  <line x1="380" y1="156" x2="690" y2="156" stroke="#6366F1" stroke-width="1"/>
  <text x="535" y="170" text-anchor="middle" font-size="9" fill="#444">RestauranteController · PedidoController</text>
  <text x="535" y="183" text-anchor="middle" font-size="9" fill="#555">Recebem HTTP · Delegam para Services · try/catch</text>

  <!-- Services -->
  <rect x="370" y="202" width="330" height="58" rx="8" fill="#E0E7FF" stroke="#6366F1" stroke-width="1.5"/>
  <text x="535" y="220" text-anchor="middle" font-size="10" font-weight="bold" fill="#0f3460">Services</text>
  <line x1="380" y1="226" x2="690" y2="226" stroke="#6366F1" stroke-width="1"/>
  <text x="535" y="240" text-anchor="middle" font-size="9" fill="#444">RestauranteService · PedidoService</text>
  <text x="535" y="253" text-anchor="middle" font-size="9" fill="#555">Coordenam operacoes · Delegam para UseCases</text>

  <!-- UseCases -->
  <rect x="370" y="272" width="330" height="68" rx="8" fill="#E0E7FF" stroke="#6366F1" stroke-width="1.5"/>
  <text x="535" y="290" text-anchor="middle" font-size="10" font-weight="bold" fill="#0f3460">UseCases</text>
  <line x1="380" y1="296" x2="690" y2="296" stroke="#6366F1" stroke-width="1"/>
  <text x="535" y="311" text-anchor="middle" font-size="9" fill="#444">CriarRestauranteUseCase</text>
  <text x="535" y="325" text-anchor="middle" font-size="9" fill="#444">CriarItemCardapioUseCase · CriarPedidoUseCase</text>
  <text x="535" y="333" text-anchor="middle" font-size="8" fill="#555">Uma unica responsabilidade por UseCase (SRP)</text>

  <!-- Domain -->
  <rect x="370" y="352" width="330" height="115" rx="8" fill="#DBEAFE" stroke="#3B82F6" stroke-width="1.5"/>
  <text x="535" y="370" text-anchor="middle" font-size="10" font-weight="bold" fill="#0f3460">Domain — Entidades e Interfaces</text>
  <line x1="380" y1="376" x2="690" y2="376" stroke="#3B82F6" stroke-width="1"/>

  <!-- Restaurantes bounded -->
  <rect x="378" y="383" width="148" height="75" rx="6" fill="#EFF6FF" stroke="#93C5FD" stroke-width="1"/>
  <text x="452" y="397" text-anchor="middle" font-size="9" font-weight="bold" fill="#1D4ED8">Restaurantes</text>
  <text x="452" y="411" text-anchor="middle" font-size="8" fill="#444">Restaurante.cs</text>
  <text x="452" y="424" text-anchor="middle" font-size="8" fill="#444">ItemCardapio.cs</text>
  <text x="452" y="437" text-anchor="middle" font-size="8" fill="#555">IRestauranteRepository</text>
  <text x="452" y="450" text-anchor="middle" font-size="8" fill="#555">IRestauranteService</text>

  <!-- Pedidos bounded -->
  <rect x="534" y="383" width="158" height="75" rx="6" fill="#EFF6FF" stroke="#93C5FD" stroke-width="1"/>
  <text x="613" y="397" text-anchor="middle" font-size="9" font-weight="bold" fill="#1D4ED8">Pedidos</text>
  <text x="613" y="411" text-anchor="middle" font-size="8" fill="#444">Pedido.cs · ItemPedido.cs</text>
  <text x="613" y="424" text-anchor="middle" font-size="8" fill="#444">StatusPedido (Enum)</text>
  <text x="613" y="437" text-anchor="middle" font-size="8" fill="#555">IPedidoRepository</text>
  <text x="613" y="450" text-anchor="middle" font-size="8" fill="#555">IPedidoService</text>

  <!-- Shared EntityBase -->
  <rect x="370" y="478" width="330" height="38" rx="8" fill="#E0E7FF" stroke="#6366F1" stroke-width="1.5"/>
  <text x="535" y="494" text-anchor="middle" font-size="9" font-weight="bold" fill="#0f3460">Shared — EntityBase.cs · AppDbContext.cs</text>
  <text x="535" y="508" text-anchor="middle" font-size="9" fill="#555">Id · CriadoEm compartilhados · EF Core configurado</text>

  <!-- Program.cs -->
  <rect x="370" y="528" width="330" height="28" rx="8" fill="#F0FDF4" stroke="#4ADE80" stroke-width="1.5"/>
  <text x="535" y="548" text-anchor="middle" font-size="9" fill="#166534">Program.cs — DI · CORS · Swagger · EnsureCreated</text>

  <!-- ===== DB ARROW ===== -->
  <line x1="535" y1="565" x2="535" y2="585" stroke="#374151" stroke-width="2"/>
  <polygon points="529,585 541,585 535,595" fill="#374151"/>

  <!-- ===== DATABASE BLOCK ===== -->
  <rect x="400" y="568" width="270" height="42" rx="10" fill="#ffffff" stroke="#374151" stroke-width="2"/>
  <rect x="400" y="568" width="270" height="18" rx="10" fill="#374151"/>
  <text x="535" y="581" text-anchor="middle" font-size="10" font-weight="bold" fill="white">🗄️ MySQL — FoodRush</text>
  <text x="535" y="601" text-anchor="middle" font-size="9" fill="#444">Restaurantes · ItensCardapio · Pedidos · ItensPedidos</text>

  <!-- ===== VERTICAL ARROWS BACKEND ===== -->
  <line x1="535" y1="190" x2="535" y2="202" stroke="#6366F1" stroke-width="1.5" marker-end="url(#arr)"/>
  <line x1="535" y1="260" x2="535" y2="272" stroke="#6366F1" stroke-width="1.5" marker-end="url(#arr)"/>
  <line x1="535" y1="340" x2="535" y2="352" stroke="#6366F1" stroke-width="1.5" marker-end="url(#arr)"/>
  <line x1="535" y1="467" x2="535" y2="478" stroke="#6366F1" stroke-width="1.5" marker-end="url(#arr)"/>
  <line x1="535" y1="516" x2="535" y2="528" stroke="#4ADE80" stroke-width="1.5" marker-end="url(#arr)"/>

  <defs>
    <marker id="arr" markerWidth="8" markerHeight="8" refX="4" refY="4" orient="auto">
      <polygon points="0,0 8,4 0,8" fill="#6366F1"/>
    </marker>
  </defs>

  <!-- ===== LEGEND ===== -->
  <rect x="735" y="85" width="140" height="200" rx="10" fill="#ffffff" stroke="#D8B4FE" stroke-width="1.5"/>
  <rect x="735" y="85" width="140" height="28" rx="10" fill="#6A0DAD"/>
  <text x="805" y="104" text-anchor="middle" font-size="11" font-weight="bold" fill="white">Legenda</text>
  <rect x="748" y="122" width="14" height="10" rx="2" fill="#7E22CE"/>
  <text x="768" y="132" font-size="9" fill="#333">Frontend (React)</text>
  <rect x="748" y="140" width="14" height="10" rx="2" fill="#0f3460"/>
  <text x="768" y="150" font-size="9" fill="#333">Backend (C#)</text>
  <rect x="748" y="158" width="14" height="10" rx="2" fill="#3B82F6"/>
  <text x="768" y="168" font-size="9" fill="#333">Domain (DDD)</text>
  <rect x="748" y="176" width="14" height="10" rx="2" fill="#374151"/>
  <text x="768" y="186" font-size="9" fill="#333">Banco de Dados</text>
  <rect x="748" y="194" width="14" height="10" rx="2" fill="#FF6B35"/>
  <text x="768" y="204" font-size="9" fill="#333">CORS / HTTP</text>
  <line x1="748" y1="218" x2="762" y2="218" stroke="#6366F1" stroke-width="2" stroke-dasharray="4,2"/>
  <text x="768" y="222" font-size="9" fill="#333">Fluxo de dados</text>
  <line x1="748" y1="236" x2="762" y2="236" stroke="#FF6B35" stroke-width="2" stroke-dasharray="4,2"/>
  <text x="768" y="240" font-size="9" fill="#333">Comunicacao REST</text>
  <line x1="748" y1="254" x2="762" y2="254" stroke="#374151" stroke-width="2"/>
  <text x="768" y="258" font-size="9" fill="#333">Acesso ao banco</text>

  <!-- Fluxo label -->
  <rect x="735" y="300" width="140" height="160" rx="10" fill="#ffffff" stroke="#D8B4FE" stroke-width="1.5"/>
  <rect x="735" y="300" width="140" height="28" rx="10" fill="#e94560"/>
  <text x="805" y="319" text-anchor="middle" font-size="11" font-weight="bold" fill="white">Fluxo DDD</text>
  <text x="805" y="345" text-anchor="middle" font-size="9" fill="#333">Controller</text>
  <line x1="805" y1="350" x2="805" y2="360" stroke="#e94560" stroke-width="1.5"/>
  <polygon points="800,360 810,360 805,368" fill="#e94560"/>
  <text x="805" y="380" text-anchor="middle" font-size="9" fill="#333">Service</text>
  <line x1="805" y1="385" x2="805" y2="395" stroke="#e94560" stroke-width="1.5"/>
  <polygon points="800,395 810,395 805,403" fill="#e94560"/>
  <text x="805" y="415" text-anchor="middle" font-size="9" fill="#333">UseCase</text>
  <line x1="805" y1="420" x2="805" y2="430" stroke="#e94560" stroke-width="1.5"/>
  <polygon points="800,430 810,430 805,438" fill="#e94560"/>
  <text x="805" y="450" text-anchor="middle" font-size="9" fill="#333">Repository</text>

  <!-- Bounded contexts label -->
  <rect x="735" y="475" width="140" height="90" rx="10" fill="#ffffff" stroke="#D8B4FE" stroke-width="1.5"/>
  <rect x="735" y="475" width="140" height="28" rx="10" fill="#1D4ED8"/>
  <text x="805" y="494" text-anchor="middle" font-size="10" font-weight="bold" fill="white">Bounded Contexts</text>
  <text x="805" y="516" text-anchor="middle" font-size="9" fill="#333">🍽️ Restaurantes</text>
  <text x="805" y="530" text-anchor="middle" font-size="9" fill="#555">Cardapio · Itens</text>
  <text x="805" y="546" text-anchor="middle" font-size="9" fill="#333">📦 Pedidos</text>
  <text x="805" y="560" text-anchor="middle" font-size="9" fill="#555">Status · Ciclo de vida</text>

</svg>
